#!OML:ASF G:\JayActor3\Patient Classification 1\Patient 1\Session 5\male.ASF
:FULLY-SPECIFIED
:DEGREES
590
root -0.722942 17.8502 -4.37715 644.034 84.5881 628.234
lowerback 21.3746 -1.06894 5.67641
upperback 9.00603 0.318306 -0.861572
thorax -2.09625 0.570584 -4.23548
lowerneck 3.73778 -0.549122 2.34692
upperneck -21.8791 0.593264 2.64421
head -7.31929 0.122088 0.389283
rclavicle 1.90833e-014 2.66371e-014
rhumerus -31.7181 -1.82127 -89.4298
rradius 27.2732
rwrist 5.17129
rhand -21.0471 -10.3447
rfingers 7.12502
rthumb 5.32889 -40.2577
lclavicle 1.90833e-014 2.66371e-014
lhumerus -36.6124 5.41 83.0045
lradius 30.2149
lwrist 21.6443
lhand -19.4418 16.175
lfingers 7.12502
lthumb 6.87867 46.0432
rfemur -9.90949 -0.707272 29.6277
rtibia 27.9089
rfoot 1.99596 -12.0778
rtoes -10.4602
lfemur -48.497 9.96474 -20.9228
ltibia 22.0059
lfoot 28.2932 4.84034
ltoes -22.7446
591
root -0.53809 17.8136 -4.40022 646.49 84.4574 630.698
lowerback 21.2888 -1.00903 5.73401
upperback 8.98425 0.39588 -0.867054
thorax -2.06666 0.608345 -4.29053
lowerneck 3.69054 -0.525328 2.35189
upperneck -21.8071 0.620736 2.64203
head -7.2873 0.135757 0.385638
rclavicle 1.86858e-014 2.38542e-014
rhumerus -31.7408 -1.93984 -89.3867
rradius 27.1508
rwrist 5.25802
rhand -21.0457 -10.3295
rfingers 7.12502
rthumb 5.33022 -40.2425
lclavicle 1.86858e-014 2.38542e-014
lhumerus -36.6014 5.43039 82.9498
lradius 30.2051
lwrist 21.6246
lhand -19.4654 16.1352
lfingers 7.12502
lthumb 6.85586 46.0042
rfemur -9.2084 -0.585134 29.5548
rtibia 27.7836
rfoot 2.19917 -11.9881
rtoes -10.4356
lfemur -48.3351 10.1237 -21.0147
ltibia 21.7746
lfoot 28.4855 4.87137
ltoes -22.7502
592
root -0.349086 17.774 -4.4238 648.776 84.3278 633.019
lowerback 21.2199 -0.951128 5.78014
upperback 8.96887 0.470492 -0.87461
thorax -2.03896 0.644978 -4.34064
lowerneck 3.63824 -0.503436 2.35983
upperneck -21.731 0.645843 2.64158
head -7.25308 0.147995 0.38225
rclavicle 3.97569e-016 1.63003e-014
rhumerus -31.7727 -2.05241 -89.344
rradius 27.0298
rwrist 5.38086
rhand -21.0773 -10.2965
rfingers 7.12502
rthumb 5.29969 -40.2102
lclavicle 3.97569e-016 1.63003e-014
lhumerus -36.5946 5.46191 82.8891
lradius 30.1972
lwrist 21.5999
lhand -19.5013 16.0883
lfingers 7.12502
lthumb 6.82121 45.9584
rfemur -8.48519 -0.461741 29.4611
rtibia 27.6943
rfoot 2.41626 -11.8942
rtoes -10.4442
lfemur -48.14 10.2846 -21.1187
ltibia 21.7287
lfoot 28.6653 4.76188
ltoes -22.8522
593
root -0.156624 17.7311 -4.448 650.956 84.194 635.243
lowerback 21.1548 -0.892897 5.82063
upperback 8.95597 0.544857 -0.88454
thorax -2.01037 0.681663 -4.38991
lowerneck 3.58204 -0.485568 2.37452
upperneck -21.6536 0.665747 2.64056
head -7.21776 0.157301 0.377938
rclavicle -2.78299e-015 1.23246e-014
rhumerus -31.8141 -2.17306 -89.2966
rradius 26.9122
rwrist 5.54688
rhand -21.0903 -10.2649
rfingers 7.12502
rthumb 5.28715 -40.1789
lclavicle -2.78299e-015 1.23246e-014
lhumerus -36.5915 5.50117 82.8226
lradius 30.1899
lwrist 21.5791
lhand -19.5473 16.0373
lfingers 7.12502
lthumb 6.77685 45.9089
rfemur -7.7633 -0.334617 29.3495
rtibia 27.642
rfoot 2.65437 -11.7975
rtoes -10.4001
lfemur -47.9256 10.436 -21.219
ltibia 21.8604
lfoot 28.8241 4.53109
ltoes -23.0405
594
root 0.0391431 17.6847 -4.47263 653.014 84.0558 637.352
lowerback 21.0872 -0.833339 5.85473
upperback 8.94467 0.619664 -0.894748
thorax -1.97872 0.718648 -4.4357
lowerneck 3.52775 -0.471768 2.39302
upperneck -21.5797 0.681057 2.64163
head -7.18402 0.16389 0.374022
rclavicle 2.38542e-015 1.86858e-014
rhumerus -31.8662 -2.30575 -89.2408
rradius 26.8007
rwrist 5.74206
rhand -21.1184 -10.2419
rfingers 7.12502
rthumb 5.26002 -40.1566
lclavicle 2.38542e-015 1.86858e-014
lhumerus -36.5934 5.54354 82.7553
lradius 30.1844
lwrist 21.5668
lhand -19.6059 15.9965
lfingers 7.12502
lthumb 6.7203 45.8699
rfemur -7.05159 -0.204886 29.222
rtibia 27.6299
rfoot 2.91962 -11.7014
rtoes -10.2919
lfemur -47.7036 10.5862 -21.32
ltibia 22.1754
lfoot 28.8854 4.13581
ltoes -23.1564
595
root 0.238127 17.635 -4.49713 654.792 83.9165 639.19
lowerback 21.0172 -0.777877 5.88501
upperback 8.93488 0.688675 -0.902172
thorax -1.94496 0.752875 -4.47482
lowerneck 3.48853 -0.462723 2.4156
upperneck -21.5153 0.691264 2.64429
head -7.1561 0.167257 0.370336
rclavicle 1.47101e-014 -2.50469e-014
rhumerus -31.9348 -2.42891 -89.1839
rradius 26.7088
rwrist 5.91686
rhand -21.1126 -10.235
rfingers 7.12502
rthumb 5.26561 -40.1495
lclavicle 1.47101e-014 -2.50469e-014
lhumerus -36.6065 5.57912 82.6905
lradius 30.181
lwrist 21.5673
lhand -19.6815 15.9592
lfingers 7.12502
lthumb 6.64729 45.8349
rfemur -6.34779 -0.0801357 29.0862
rtibia 27.6603
rfoot 3.19916 -11.6163
rtoes -10.0239
lfemur -47.4834 10.751 -21.4347
ltibia 22.6986
lfoot 28.6544 3.50858
ltoes -23.0476
596
root 0.439287 17.5829 -4.5222 656.37 83.7788 640.82
lowerback 20.9347 -0.727924 5.9152
upperback 8.923 0.749494 -0.909356
thorax -1.90796 0.782998 -4.51145
lowerneck 3.46946 -0.454367 2.43891
upperneck -21.4678 0.702147 2.64743
head -7.13729 0.170498 0.366665
rclavicle 2.3059e-014 1.66979e-014
rhumerus -32.0124 -2.5382 -89.1272
rradius 26.6323
rwrist 6.05398
rhand -21.1048 -10.2376
rfingers 7.12502
rthumb 5.27319 -40.152
lclavicle 2.3059e-014 1.66979e-014
lhumerus -36.6295 5.61219 82.6299
lradius 30.1792
lwrist 21.5799
lhand -19.7704 15.935
lfingers 7.12502
lthumb 6.56147 45.8134
rfemur -5.67597 0.0247873 28.9316
rtibia 27.7338
rfoot 3.52401 -11.5303
rtoes -9.54679
lfemur -47.2954 10.9364 -21.5698
ltibia 23.4642
lfoot 27.9309 2.62723
ltoes -22.7931
597
root 0.642297 17.5295 -4.54775 657.752 83.6572 642.261
lowerback 20.8568 -0.686989 5.93366
upperback 8.9136 0.797053 -0.919271
thorax -1.87238 0.806581 -4.54138
lowerneck 3.47392 -0.445724 2.464
upperneck -21.4445 0.71532 2.64852
head -7.13061 0.174482 0.36188
rclavicle -4.21423e-014 -5.24792e-014
rhumerus -32.089 -2.63129 -89.0751
rradius 26.5643
rwrist 6.14515
rhand -21.109 -10.2468
rfingers 7.12502
rthumb 5.2691 -40.1613
lclavicle -4.21423e-014 -5.24792e-014
lhumerus -36.6595 5.64224 82.5752
lradius 30.1777
lwrist 21.604
lhand -19.8725 15.9014
lfingers 7.12502
lthumb 6.46294 45.7828
rfemur -5.02743 0.10336 28.7439
rtibia 27.8559
rfoot 3.90766 -11.4473
rtoes -8.80669
lfemur -47.1261 11.1792 -21.7648
ltibia 24.4898
lfoot 26.5681 1.37739
ltoes -22.8439
598
root 0.845648 17.4764 -4.57401 658.933 83.5664 643.514
lowerback 20.8084 -0.659778 5.93468
upperback 8.90836 0.826299 -0.934927
thorax -1.84964 0.820988 -4.5641
lowerneck 3.50144 -0.433869 2.48549
upperneck -21.4496 0.735092 2.6494
head -7.1373 0.181613 0.357171
rclavicle -8.34896e-015 -1.55052e-014
rhumerus -32.1514 -2.72048 -89.0264
rradius 26.4933
rwrist 6.20672
rhand -21.141 -10.2478
rfingers 7.12502
rthumb 5.23818 -40.163
lclavicle -8.34896e-015 -1.55052e-014
lhumerus -36.6877 5.67097 82.5287
lradius 30.1708
lwrist 21.6336
lhand -19.982 15.8577
lfingers 7.12502
lthumb 6.35719 45.7423
rfemur -4.41185 0.155127 28.5104
rtibia 28.0431
rfoot 4.38674 -11.3764
rtoes -7.82412
lfemur -46.9588 11.4413 -22.0084
ltibia 25.7549
lfoot 24.5366 -0.0436706
ltoes -23.4114
599
root 1.04774 17.4251 -4.60056 659.918 83.5251 644.599
lowerback 20.8189 -0.647074 5.89939
upperback 8.91125 0.835379 -0.957803
thorax -1.8511 0.824992 -4.57073
lowerneck 3.54028 -0.420236 2.50461
upperneck -21.4794 0.758559 2.64698
head -7.15406 0.190882 0.351508
rclavicle -1.59028e-015 3.97569e-016
rhumerus -32.1875 -2.83399 -88.9722
rradius 26.4104
rwrist 6.26181
rhand -21.1861 -10.259
rfingers 7.12502
rthumb 5.19464 -40.1753
lclavicle -1.59028e-015 3.97569e-016
lhumerus -36.7009 5.69708 82.4952
lradius 30.1534
lwrist 21.662
lhand -20.1017 15.7974
lfingers 7.12502
lthumb 6.24167 45.6854
rfemur -3.84182 0.193302 28.2203
rtibia 28.3196
rfoot 4.98914 -11.3476
rtoes -6.56345
lfemur -46.7632 11.6547 -22.2654
ltibia 27.1961
lfoot 21.9791 -1.30587
ltoes -24.4313
600
root 1.24714 17.377 -4.62629 660.718 83.56 645.539
lowerback 20.9229 -0.646733 5.79834
upperback 8.92298 0.824276 -0.99039
thorax -1.8942 0.817726 -4.54793
lowerneck 3.5801 -0.407865 2.52246
upperneck -21.5215 0.780932 2.64336
head -7.17501 0.199877 0.345725
rclavicle -2.78299e-014 2.78299e-015
rhumerus -32.2023 -2.98054 -88.9113
rradius 26.3195
rwrist 6.31697
rhand -21.2886 -10.2559
rfingers 7.12502
rthumb 5.09566 -40.1747
lclavicle -2.78299e-014 2.78299e-015
lhumerus -36.6902 5.70965 82.4783
lradius 30.1219
lwrist 21.6829
lhand -20.2267 15.7373
lfingers 7.12502
lthumb 6.12092 45.6289
rfemur -3.33052 0.227326 27.86
rtibia 28.719
rfoot 5.71263 -11.3957
rtoes -5.17568
lfemur -46.5066 11.7761 -22.5248
ltibia 28.7105
lfoot 19.2001 -2.18262
ltoes -25.706
601
root 1.4423 17.3338 -4.64997 661.329 83.6899 646.336
lowerback 21.1387 -0.655185 5.60689
upperback 8.94233 0.793862 -1.03211
thorax -1.9897 0.798893 -4.48149
lowerneck 3.61457 -0.401245 2.53586
upperneck -21.5662 0.796036 2.64509
head -7.19588 0.205391 0.342937
rclavicle 2.38542e-015 7.95139e-015
rhumerus -32.2015 -3.15952 -88.8448
rradius 26.2264
rwrist 6.38088
rhand -21.4046 -10.2478
rfingers 7.12502
rthumb 4.98372 -40.1692
lclavicle 2.38542e-015 7.95139e-015
lhumerus -36.6457 5.70248 82.4804
lradius 30.0722
lwrist 21.6963
lhand -20.3566 15.6653
lfingers 7.12502
lthumb 5.99557 45.5605
rfemur -2.90217 0.258241 27.4252
rtibia 29.2727
rfoot 6.57386 -11.5543
rtoes -3.8564
lfemur -46.1794 11.7982 -22.7909
ltibia 30.1918
lfoot 16.5458 -2.62544
ltoes -27.0109
602
root 1.63227 17.2972 -4.67069 661.916 83.9336 647.136
lowerback 21.4542 -0.659574 5.2951
upperback 8.96575 0.752423 -1.08434
thorax -2.13446 0.77197 -4.35711
lowerneck 3.63975 -0.405634 2.53921
upperneck -21.6071 0.796307 2.65732
head -7.21387 0.20382 0.346326
rclavicle -6.75868e-015 -1.19271e-014
rhumerus -32.191 -3.36655 -88.7711
rradius 26.1417
rwrist 6.45406
rhand -21.5543 -10.2309
rfingers 7.12502
rthumb 4.83918 -40.1556
lclavicle -6.75868e-015 -1.19271e-014
lhumerus -36.5549 5.6651 82.5089
lradius 30.0064
lwrist 21.6981
lhand -20.4744 15.6036
lfingers 7.12502
lthumb 5.88184 45.502
rfemur -2.59509 0.286946 26.8984
rtibia 30.0063
rfoot 7.56835 -11.8325
rtoes -2.68211
lfemur -45.7987 11.7305 -23.0872
ltibia 31.5553
lfoot 14.2691 -2.76482
ltoes -28.1145
